# xmcd
#
# Track frame offsets:
#	150
#	3861
#	11638
#	29676
#	47956
#	66797
#	80886
#	96768
#	113661
#	131411
#	150768
#	169054
#	186399
#
# Disc length: 2823 seconds
#
# Revision: 0
# Processed by: cddbd v1.5.1PL0 Copyright (c) Steve Scherf et al.
# Submitted via: dBpowerAMP V4.0
#
DISCID=a10b050d
DTITLE=brown intensions - brown intensions
DYEAR=1900
DGENRE=Gangsta
TTITLE0=jhjjj
TTITLE1=nbhjnhjjk
TTITLE2=,kpkommko
TTITLE3=jkk
TTITLE4=456
TTITLE5=vggnhji
TTITLE6=jhgg
TTITLE7=jiojiip
TTITLE8=xgfjo
TTITLE9=jkjk
TTITLE10=nn
TTITLE11=hgg+
TTITLE12=nn
EXTD=Brown Intensions\n
EXTT0=
EXTT1=
EXTT2=
EXTT3=
EXTT4=
EXTT5=
EXTT6=
EXTT7=
EXTT8=
EXTT9=
EXTT10=
EXTT11=
EXTT12=
PLAYORDER=
